<svg xmlns="http://www.w3.org/2000/svg" xmlns:xlink="http://www.w3.org/1999/xlink" width="500" zoomAndPan="magnify" viewBox="0 0 375 374.999991" height="500" preserveAspectRatio="xMidYMid meet" version="1.0"><defs><clipPath id="8b2dcc7bbf"><path d="M 95.539062 71.644531 L 165 71.644531 L 165 266 L 95.539062 266 Z M 95.539062 71.644531 " clip-rule="nonzero"/></clipPath><clipPath id="d0d10d8284"><path d="M 174 109 L 244 109 L 244 303.394531 L 174 303.394531 Z M 174 109 " clip-rule="nonzero"/></clipPath><clipPath id="3d8011d711"><path d="M 267 79 L 279.289062 79 L 279.289062 92 L 267 92 Z M 267 79 " clip-rule="nonzero"/></clipPath></defs><g clip-path="url(#8b2dcc7bbf)"><path fill="#ffffff" d="M 95.597656 180.691406 L 95.597656 156.484375 C 100.503906 156.214844 104.203125 155.472656 106.691406 154.261719 C 109.179688 153.050781 111.332031 151.019531 113.148438 148.160156 C 114.964844 145.300781 116.207031 141.722656 116.882812 137.417969 C 117.417969 134.191406 117.6875 128.574219 117.6875 120.570312 C 117.6875 107.527344 118.292969 98.429688 119.503906 93.285156 C 120.714844 88.144531 122.898438 84.003906 126.058594 80.878906 C 129.21875 77.753906 133.828125 75.28125 139.878906 73.464844 C 143.980469 72.253906 150.433594 71.648438 159.246094 71.648438 L 164.589844 71.648438 L 164.589844 95.757812 C 157.128906 95.757812 152.335938 96.179688 150.21875 97.019531 C 148.101562 97.863281 146.535156 99.136719 145.527344 100.851562 C 144.519531 102.566406 144.015625 105.507812 144.015625 109.679688 C 144.015625 113.914062 143.710938 121.949219 143.105469 133.785156 C 142.769531 140.441406 141.898438 145.839844 140.484375 149.976562 C 139.070312 154.109375 137.273438 157.523438 135.085938 160.214844 C 132.902344 162.902344 129.554688 165.695312 125.050781 168.585938 C 129.019531 170.875 132.261719 173.546875 134.785156 176.605469 C 137.308594 179.667969 139.238281 183.378906 140.585938 187.753906 C 141.929688 192.125 142.804688 197.972656 143.207031 205.300781 C 143.675781 216.464844 143.914062 223.59375 143.914062 226.6875 C 143.914062 231.125 144.449219 234.21875 145.527344 235.96875 C 146.601562 237.714844 148.234375 239.046875 150.417969 239.953125 C 152.601562 240.859375 157.328125 241.3125 164.589844 241.3125 L 164.589844 265.523438 L 159.246094 265.523438 C 150.167969 265.523438 143.207031 264.796875 138.367188 263.355469 C 133.523438 261.90625 129.4375 259.503906 126.109375 256.140625 C 122.78125 252.777344 120.542969 248.625 119.402344 243.683594 C 118.257812 238.742188 117.6875 230.957031 117.6875 220.332031 C 117.6875 207.960938 117.148438 199.921875 116.074219 196.222656 C 114.59375 190.84375 112.359375 186.996094 109.363281 184.675781 C 106.371094 182.355469 101.78125 181.027344 95.597656 180.691406 " fill-opacity="1" fill-rule="nonzero"/></g><path fill="#eeb30d" d="M 248.628906 121.871094 L 232.839844 121.871094 L 232.839844 106.085938 L 248.628906 106.085938 L 248.628906 121.871094 " fill-opacity="1" fill-rule="nonzero"/><path fill="#eeb30d" d="M 244.902344 153.445312 L 232.839844 153.445312 L 232.839844 141.386719 L 244.902344 141.386719 L 244.902344 153.445312 " fill-opacity="1" fill-rule="nonzero"/><g clip-path="url(#d0d10d8284)"><path fill="#eeb30d" d="M 198.96875 133.933594 L 198.96875 121.871094 L 211.035156 121.871094 L 211.035156 133.933594 Z M 229.652344 190.332031 C 226.628906 188.011719 224.375 184.160156 222.894531 178.78125 C 222.082031 175.746094 221.597656 169.929688 221.441406 161.34375 L 211.035156 161.34375 L 211.035156 145.554688 L 221.210938 145.554688 C 220.957031 139.464844 220.425781 134.722656 219.617188 131.320312 C 218.441406 126.378906 216.203125 122.210938 212.910156 118.816406 C 209.613281 115.421875 205.546875 113.015625 200.703125 111.601562 C 195.859375 110.1875 188.902344 109.484375 179.824219 109.484375 L 174.476562 109.484375 L 174.476562 133.589844 C 182.078125 133.589844 186.96875 134.046875 189.15625 134.953125 C 191.339844 135.863281 192.851562 137.15625 193.695312 138.835938 C 194.535156 140.519531 194.988281 143.878906 195.054688 148.921875 C 195.390625 164.925781 195.929688 175.285156 196.667969 179.992188 C 197.8125 186.851562 199.960938 192.5 203.125 196.9375 C 205.410156 200.03125 209.042969 203.191406 214.019531 206.417969 C 210.1875 208.636719 207.039062 211.210938 204.585938 214.136719 C 202.132812 217.0625 200.164062 220.625 198.6875 224.828125 C 197.207031 229.03125 196.300781 234.628906 195.960938 241.625 C 195.425781 253.191406 195.140625 261.023438 195.105469 265.125 C 195.070312 269.226562 194.535156 272.136719 193.492188 273.851562 C 192.449219 275.566406 190.820312 276.878906 188.597656 277.785156 C 186.378906 278.695312 181.671875 279.148438 174.476562 279.148438 L 174.476562 303.355469 L 179.824219 303.355469 C 188.632812 303.355469 195.089844 302.75 199.191406 301.539062 C 205.308594 299.722656 209.949219 297.253906 213.113281 294.128906 C 216.269531 291 218.441406 286.847656 219.617188 281.667969 C 220.792969 276.488281 221.382812 267.378906 221.382812 254.332031 C 221.382812 246.398438 221.652344 240.816406 222.1875 237.589844 C 222.929688 233.285156 224.191406 229.703125 225.972656 226.847656 C 227.753906 223.988281 229.886719 221.953125 232.378906 220.746094 C 234.863281 219.53125 238.566406 218.792969 243.472656 218.523438 L 243.472656 194.316406 C 237.285156 193.980469 232.679688 192.648438 229.652344 190.332031 " fill-opacity="1" fill-rule="nonzero"/></g><g clip-path="url(#3d8011d711)"><path fill="#eeb30d" d="M 279.410156 91.210938 L 267.347656 91.210938 L 267.347656 79.144531 L 279.410156 79.144531 L 279.410156 91.210938 " fill-opacity="1" fill-rule="nonzero"/></g><path fill="#eeb30d" d="M 218.925781 106.085938 L 196.410156 106.085938 L 196.410156 83.566406 L 218.925781 83.566406 L 218.925781 106.085938 " fill-opacity="1" fill-rule="nonzero"/></svg>